<mxfile host="65bd71144e">
    <diagram id="T9uuaTeBy4bPSP1g8a4x" name="Page-1">
        <mxGraphModel dx="705" dy="555" grid="1" gridSize="10" guides="1" tooltips="1" connect="1" arrows="1" fold="1" page="1" pageScale="1" pageWidth="827" pageHeight="1169" background="#FFFFFF" math="0" shadow="0">
            <root>
                <mxCell id="0"/>
                <mxCell id="1" parent="0"/>
                <mxCell id="227" value="m" style="edgeStyle=none;rounded=0;html=1;exitX=1;exitY=0.5;exitDx=0;exitDy=0;entryX=0;entryY=0.5;entryDx=0;entryDy=0;strokeColor=#000000;endArrow=block;endFill=1;startSize=6;endSize=6;fontStyle=2" edge="1" parent="1" source="229" target="244">
                    <mxGeometry relative="1" as="geometry"/>
                </mxCell>
                <mxCell id="228" value="r" style="edgeStyle=none;rounded=0;html=1;exitX=0.5;exitY=0;exitDx=0;exitDy=0;entryX=0.5;entryY=1;entryDx=0;entryDy=0;strokeColor=#000000;endArrow=block;endFill=1;startSize=6;endSize=6;startArrow=block;startFill=1;fontStyle=2" edge="1" parent="1" source="229" target="245">
                    <mxGeometry relative="1" as="geometry"/>
                </mxCell>
                <mxCell id="229" value="Task" style="ellipse;whiteSpace=wrap;html=1;" vertex="1" parent="1">
                    <mxGeometry x="320" y="120" width="120" height="80" as="geometry"/>
                </mxCell>
                <mxCell id="230" value="n" style="edgeStyle=none;html=1;exitX=1;exitY=1;exitDx=0;exitDy=0;entryX=0;entryY=0;entryDx=0;entryDy=0;endArrow=oval;endFill=0;startSize=6;endSize=6;fontStyle=2" edge="1" parent="1" source="231" target="229">
                    <mxGeometry relative="1" as="geometry"/>
                </mxCell>
                <mxCell id="231" value="Inputs" style="rounded=0;whiteSpace=wrap;html=1;" vertex="1" parent="1">
                    <mxGeometry x="200" y="40" width="80" height="40" as="geometry"/>
                </mxCell>
                <mxCell id="232" value="o" style="edgeStyle=orthogonalEdgeStyle;rounded=0;html=1;exitX=1;exitY=0.5;exitDx=0;exitDy=0;entryX=0;entryY=0.5;entryDx=0;entryDy=0;strokeColor=#000000;endArrow=block;endFill=1;startSize=6;endSize=6;fontStyle=2" edge="1" parent="1" source="233" target="229">
                    <mxGeometry relative="1" as="geometry"/>
                </mxCell>
                <mxCell id="233" value="" style="rounded=0;whiteSpace=wrap;html=1;" vertex="1" parent="1">
                    <mxGeometry x="200" y="140" width="80" height="40" as="geometry"/>
                </mxCell>
                <mxCell id="234" style="edgeStyle=orthogonalEdgeStyle;rounded=0;html=1;exitX=1;exitY=0.5;exitDx=0;exitDy=0;entryX=0;entryY=0.5;entryDx=0;entryDy=0;strokeColor=#000000;endArrow=none;endFill=0;" edge="1" parent="1" target="233">
                    <mxGeometry relative="1" as="geometry">
                        <mxPoint x="160" y="160" as="sourcePoint"/>
                    </mxGeometry>
                </mxCell>
                <mxCell id="236" style="edgeStyle=orthogonalEdgeStyle;html=1;exitX=1;exitY=0.5;exitDx=0;exitDy=0;entryX=0;entryY=0.5;entryDx=0;entryDy=0;strokeColor=#000000;endArrow=none;endFill=0;rounded=0;" edge="1" parent="1" target="233">
                    <mxGeometry relative="1" as="geometry">
                        <mxPoint x="160" y="130" as="sourcePoint"/>
                    </mxGeometry>
                </mxCell>
                <mxCell id="238" style="edgeStyle=orthogonalEdgeStyle;rounded=0;html=1;exitX=1;exitY=0.5;exitDx=0;exitDy=0;entryX=0;entryY=0.5;entryDx=0;entryDy=0;strokeColor=#000000;endArrow=block;endFill=0;" edge="1" parent="1" target="233">
                    <mxGeometry relative="1" as="geometry">
                        <mxPoint x="160" y="190" as="sourcePoint"/>
                    </mxGeometry>
                </mxCell>
                <mxCell id="240" value="p" style="rounded=0;html=1;exitX=1;exitY=0;exitDx=0;exitDy=0;entryX=0;entryY=1;entryDx=0;entryDy=0;strokeColor=#000000;endArrow=oval;endFill=1;startSize=6;endSize=6;fontStyle=2" edge="1" parent="1" source="241" target="229">
                    <mxGeometry relative="1" as="geometry"/>
                </mxCell>
                <mxCell id="241" value="" style="rounded=0;whiteSpace=wrap;html=1;" vertex="1" parent="1">
                    <mxGeometry x="200" y="240" width="80" height="40" as="geometry"/>
                </mxCell>
                <mxCell id="242" value="q" style="edgeStyle=none;rounded=0;html=1;exitX=0.5;exitY=0;exitDx=0;exitDy=0;entryX=0.5;entryY=1;entryDx=0;entryDy=0;strokeColor=#000000;endArrow=oval;endFill=0;startSize=6;endSize=6;fontStyle=2" edge="1" parent="1" source="243" target="229">
                    <mxGeometry relative="1" as="geometry"/>
                </mxCell>
                <mxCell id="243" value="" style="rounded=0;whiteSpace=wrap;html=1;" vertex="1" parent="1">
                    <mxGeometry x="340" y="240" width="80" height="40" as="geometry"/>
                </mxCell>
                <mxCell id="244" value="Deliverables" style="rounded=0;whiteSpace=wrap;html=1;" vertex="1" parent="1">
                    <mxGeometry x="480" y="140" width="80" height="40" as="geometry"/>
                </mxCell>
                <mxCell id="245" value="" style="rounded=0;whiteSpace=wrap;html=1;" vertex="1" parent="1">
                    <mxGeometry x="340" y="40" width="80" height="40" as="geometry"/>
                </mxCell>
                <mxCell id="303" value="m" style="edgeStyle=none;rounded=0;html=1;exitX=1;exitY=0.5;exitDx=0;exitDy=0;entryX=0;entryY=0.5;entryDx=0;entryDy=0;strokeColor=#000000;endArrow=block;endFill=1;startSize=6;endSize=6;fontStyle=2" edge="1" parent="1" source="305" target="317">
                    <mxGeometry relative="1" as="geometry"/>
                </mxCell>
                <mxCell id="304" value="r" style="edgeStyle=none;rounded=0;html=1;exitX=0.5;exitY=0;exitDx=0;exitDy=0;entryX=0.5;entryY=1;entryDx=0;entryDy=0;strokeColor=#000000;endArrow=block;endFill=1;startSize=6;endSize=6;startArrow=block;startFill=1;fontStyle=2" edge="1" parent="1" source="305" target="318">
                    <mxGeometry relative="1" as="geometry"/>
                </mxCell>
                <mxCell id="305" value="Task" style="ellipse;whiteSpace=wrap;html=1;" vertex="1" parent="1">
                    <mxGeometry x="600" y="220" width="120" height="80" as="geometry"/>
                </mxCell>
                <mxCell id="306" value="n" style="edgeStyle=none;html=1;exitX=1;exitY=1;exitDx=0;exitDy=0;entryX=0;entryY=0;entryDx=0;entryDy=0;endArrow=oval;endFill=0;startSize=6;endSize=6;fontStyle=2" edge="1" parent="1" target="305">
                    <mxGeometry relative="1" as="geometry">
                        <mxPoint x="560" y="180" as="sourcePoint"/>
                    </mxGeometry>
                </mxCell>
                <mxCell id="308" value="o" style="edgeStyle=orthogonalEdgeStyle;rounded=0;html=1;exitX=1;exitY=0.5;exitDx=0;exitDy=0;entryX=0;entryY=0.5;entryDx=0;entryDy=0;strokeColor=#000000;endArrow=block;endFill=1;startSize=6;endSize=6;fontStyle=2" edge="1" parent="1" source="309" target="305">
                    <mxGeometry relative="1" as="geometry"/>
                </mxCell>
                <mxCell id="309" value="" style="rounded=0;whiteSpace=wrap;html=1;" vertex="1" parent="1">
                    <mxGeometry x="480" y="240" width="80" height="40" as="geometry"/>
                </mxCell>
                <mxCell id="310" style="edgeStyle=orthogonalEdgeStyle;rounded=0;html=1;exitX=1;exitY=0.5;exitDx=0;exitDy=0;entryX=0;entryY=0.5;entryDx=0;entryDy=0;strokeColor=#000000;endArrow=none;endFill=0;" edge="1" parent="1" target="309">
                    <mxGeometry relative="1" as="geometry">
                        <mxPoint x="440" y="260" as="sourcePoint"/>
                    </mxGeometry>
                </mxCell>
                <mxCell id="311" style="edgeStyle=orthogonalEdgeStyle;html=1;exitX=1;exitY=0.5;exitDx=0;exitDy=0;entryX=0;entryY=0.5;entryDx=0;entryDy=0;strokeColor=#000000;endArrow=none;endFill=0;rounded=0;" edge="1" parent="1" target="309">
                    <mxGeometry relative="1" as="geometry">
                        <mxPoint x="440" y="230" as="sourcePoint"/>
                    </mxGeometry>
                </mxCell>
                <mxCell id="312" style="edgeStyle=orthogonalEdgeStyle;rounded=0;html=1;exitX=1;exitY=0.5;exitDx=0;exitDy=0;entryX=0;entryY=0.5;entryDx=0;entryDy=0;strokeColor=#000000;endArrow=block;endFill=0;" edge="1" parent="1" target="309">
                    <mxGeometry relative="1" as="geometry">
                        <mxPoint x="440" y="290" as="sourcePoint"/>
                    </mxGeometry>
                </mxCell>
                <mxCell id="313" value="p" style="rounded=0;html=1;exitX=1;exitY=0;exitDx=0;exitDy=0;entryX=0;entryY=1;entryDx=0;entryDy=0;strokeColor=#000000;endArrow=oval;endFill=1;startSize=6;endSize=6;fontStyle=2" edge="1" parent="1" source="314" target="305">
                    <mxGeometry relative="1" as="geometry"/>
                </mxCell>
                <mxCell id="314" value="" style="rounded=0;whiteSpace=wrap;html=1;" vertex="1" parent="1">
                    <mxGeometry x="480" y="340" width="80" height="40" as="geometry"/>
                </mxCell>
                <mxCell id="315" value="q" style="edgeStyle=none;rounded=0;html=1;exitX=0.5;exitY=0;exitDx=0;exitDy=0;entryX=0.5;entryY=1;entryDx=0;entryDy=0;strokeColor=#000000;endArrow=oval;endFill=0;startSize=6;endSize=6;fontStyle=2" edge="1" parent="1" source="316" target="305">
                    <mxGeometry relative="1" as="geometry"/>
                </mxCell>
                <mxCell id="316" value="" style="rounded=0;whiteSpace=wrap;html=1;" vertex="1" parent="1">
                    <mxGeometry x="620" y="340" width="80" height="40" as="geometry"/>
                </mxCell>
                <mxCell id="317" value="Deliverables" style="rounded=0;whiteSpace=wrap;html=1;" vertex="1" parent="1">
                    <mxGeometry x="760" y="240" width="80" height="40" as="geometry"/>
                </mxCell>
                <mxCell id="318" value="" style="rounded=0;whiteSpace=wrap;html=1;" vertex="1" parent="1">
                    <mxGeometry x="620" y="140" width="80" height="40" as="geometry"/>
                </mxCell>
            </root>
        </mxGraphModel>
    </diagram>
</mxfile>